<svg xmlns="http://www.w3.org/2000/svg" viewBox="0 0 384 512">
  <path fill="#6366f1" d="M0 64C0 28.7 28.7 0 64 0H224V128c0 17.7 14.3 32 32 32H384V448c0 35.3-28.7 64-64 64H64c-35.3 0-64-28.7-64-64V64zm384 64H256V0L384 128zM161 225c-9.4-9.4-24.6-9.4-33.9 0l-48 48c-9.4 9.4-9.4 24.6 0 33.9l48 48c9.4 9.4 24.6 9.4 33.9 0s9.4-24.6 0-33.9L129.9 288l31.1-31.1c9.4-9.4 9.4-24.6 0-33.9zm63.1 161.9c9.4 9.4 24.6 9.4 33.9 0l48-48c9.4-9.4 9.4-24.6 0-33.9l-48-48c-9.4-9.4-24.6-9.4-33.9 0s-9.4 24.6 0 33.9l31.1 31.1-31.1 31.1c-9.4 9.4-9.4 24.6 0 33.9z"/>
</svg>
